<mxfile host="app.diagrams.net" modified="2023-10-09T13:06:13.438Z" agent="Mozilla/5.0 (Windows NT 10.0; Win64; x64) AppleWebKit/537.36 (KHTML, like Gecko) Chrome/117.0.0.0 Safari/537.36" etag="ziFtNSsuPHJ81Fa2YMUB" version="21.8.2" type="device">
  <diagram name="Page-1" id="17xLx5Jpj_yAPQxF6Sxz">
    <mxGraphModel dx="1434" dy="790" grid="1" gridSize="10" guides="1" tooltips="1" connect="1" arrows="1" fold="1" page="1" pageScale="1" pageWidth="850" pageHeight="1100" math="0" shadow="0">
      <root>
        <mxCell id="0" />
        <mxCell id="1" parent="0" />
        <mxCell id="ru2hNwoar7phW9bpmIqV-1" value="&lt;div&gt;Usuario registrado&lt;/div&gt;" style="shape=umlActor;verticalLabelPosition=bottom;verticalAlign=top;html=1;outlineConnect=0;" parent="1" vertex="1">
          <mxGeometry x="120" y="160" width="30" height="60" as="geometry" />
        </mxCell>
        <mxCell id="ru2hNwoar7phW9bpmIqV-2" value="&lt;div&gt;Usuario invitado&lt;/div&gt;" style="shape=umlActor;verticalLabelPosition=bottom;verticalAlign=top;html=1;outlineConnect=0;" parent="1" vertex="1">
          <mxGeometry x="120" y="330" width="30" height="60" as="geometry" />
        </mxCell>
        <mxCell id="ru2hNwoar7phW9bpmIqV-3" value="&lt;div&gt;Administrador&lt;/div&gt;" style="shape=umlActor;verticalLabelPosition=bottom;verticalAlign=top;html=1;outlineConnect=0;" parent="1" vertex="1">
          <mxGeometry x="625" y="270" width="30" height="60" as="geometry" />
        </mxCell>
        <mxCell id="ru2hNwoar7phW9bpmIqV-4" value="" style="rounded=0;whiteSpace=wrap;html=1;fillColor=none;" parent="1" vertex="1">
          <mxGeometry x="210" y="15" width="330" height="505" as="geometry" />
        </mxCell>
        <mxCell id="ru2hNwoar7phW9bpmIqV-7" value="cerrar sesión" style="ellipse;whiteSpace=wrap;html=1;" parent="1" vertex="1">
          <mxGeometry x="280" y="162" width="80" height="30" as="geometry" />
        </mxCell>
        <mxCell id="ru2hNwoar7phW9bpmIqV-11" value="" style="endArrow=none;html=1;rounded=0;exitX=0.5;exitY=0.5;exitDx=0;exitDy=0;exitPerimeter=0;entryX=0;entryY=0.5;entryDx=0;entryDy=0;" parent="1" source="ru2hNwoar7phW9bpmIqV-1" target="ru2hNwoar7phW9bpmIqV-7" edge="1">
          <mxGeometry width="50" height="50" relative="1" as="geometry">
            <mxPoint x="135" y="160" as="sourcePoint" />
            <mxPoint x="290" y="105" as="targetPoint" />
          </mxGeometry>
        </mxCell>
        <mxCell id="ru2hNwoar7phW9bpmIqV-14" value="buscar eventos" style="ellipse;whiteSpace=wrap;html=1;" parent="1" vertex="1">
          <mxGeometry x="280" y="253" width="80" height="30" as="geometry" />
        </mxCell>
        <mxCell id="ru2hNwoar7phW9bpmIqV-15" value="" style="endArrow=none;html=1;rounded=0;exitX=0.5;exitY=0.5;exitDx=0;exitDy=0;exitPerimeter=0;entryX=0;entryY=0.5;entryDx=0;entryDy=0;" parent="1" source="ru2hNwoar7phW9bpmIqV-1" target="ru2hNwoar7phW9bpmIqV-14" edge="1">
          <mxGeometry width="50" height="50" relative="1" as="geometry">
            <mxPoint x="175" y="230" as="sourcePoint" />
            <mxPoint x="290" y="175" as="targetPoint" />
          </mxGeometry>
        </mxCell>
        <mxCell id="ru2hNwoar7phW9bpmIqV-16" value="registrarse" style="ellipse;whiteSpace=wrap;html=1;" parent="1" vertex="1">
          <mxGeometry x="280" y="435" width="80" height="30" as="geometry" />
        </mxCell>
        <mxCell id="ru2hNwoar7phW9bpmIqV-17" value="" style="endArrow=none;html=1;rounded=0;exitX=0.5;exitY=0.5;exitDx=0;exitDy=0;exitPerimeter=0;entryX=0;entryY=0.5;entryDx=0;entryDy=0;" parent="1" source="ru2hNwoar7phW9bpmIqV-2" target="ru2hNwoar7phW9bpmIqV-16" edge="1">
          <mxGeometry width="50" height="50" relative="1" as="geometry">
            <mxPoint x="170" y="470" as="sourcePoint" />
            <mxPoint x="285" y="415" as="targetPoint" />
          </mxGeometry>
        </mxCell>
        <mxCell id="ru2hNwoar7phW9bpmIqV-18" value="" style="endArrow=none;html=1;rounded=0;exitX=0.5;exitY=0.5;exitDx=0;exitDy=0;exitPerimeter=0;entryX=0;entryY=0.5;entryDx=0;entryDy=0;" parent="1" source="ru2hNwoar7phW9bpmIqV-2" target="ru2hNwoar7phW9bpmIqV-14" edge="1">
          <mxGeometry width="50" height="50" relative="1" as="geometry">
            <mxPoint x="185" y="210" as="sourcePoint" />
            <mxPoint x="290" y="325" as="targetPoint" />
          </mxGeometry>
        </mxCell>
        <mxCell id="ru2hNwoar7phW9bpmIqV-19" value="visualizar evento" style="ellipse;whiteSpace=wrap;html=1;" parent="1" vertex="1">
          <mxGeometry x="280" y="298" width="80" height="30" as="geometry" />
        </mxCell>
        <mxCell id="ru2hNwoar7phW9bpmIqV-21" value="" style="endArrow=none;html=1;rounded=0;exitX=0.5;exitY=0.5;exitDx=0;exitDy=0;exitPerimeter=0;entryX=0;entryY=0.5;entryDx=0;entryDy=0;" parent="1" source="ru2hNwoar7phW9bpmIqV-2" target="ru2hNwoar7phW9bpmIqV-19" edge="1">
          <mxGeometry width="50" height="50" relative="1" as="geometry">
            <mxPoint x="185" y="370" as="sourcePoint" />
            <mxPoint x="290" y="295" as="targetPoint" />
          </mxGeometry>
        </mxCell>
        <mxCell id="ru2hNwoar7phW9bpmIqV-22" value="" style="endArrow=none;html=1;rounded=0;exitX=0.5;exitY=0.5;exitDx=0;exitDy=0;exitPerimeter=0;entryX=0;entryY=0.5;entryDx=0;entryDy=0;" parent="1" source="ru2hNwoar7phW9bpmIqV-1" target="ru2hNwoar7phW9bpmIqV-19" edge="1">
          <mxGeometry width="50" height="50" relative="1" as="geometry">
            <mxPoint x="195" y="370" as="sourcePoint" />
            <mxPoint x="300" y="295" as="targetPoint" />
          </mxGeometry>
        </mxCell>
        <mxCell id="ru2hNwoar7phW9bpmIqV-23" value="compartir evento" style="ellipse;whiteSpace=wrap;html=1;" parent="1" vertex="1">
          <mxGeometry x="280" y="344" width="80" height="30" as="geometry" />
        </mxCell>
        <mxCell id="ru2hNwoar7phW9bpmIqV-24" value="" style="endArrow=none;html=1;rounded=0;exitX=0.5;exitY=0.5;exitDx=0;exitDy=0;exitPerimeter=0;entryX=0;entryY=0.5;entryDx=0;entryDy=0;" parent="1" source="ru2hNwoar7phW9bpmIqV-2" target="ru2hNwoar7phW9bpmIqV-23" edge="1">
          <mxGeometry width="50" height="50" relative="1" as="geometry">
            <mxPoint x="175" y="400" as="sourcePoint" />
            <mxPoint x="290" y="335" as="targetPoint" />
          </mxGeometry>
        </mxCell>
        <mxCell id="ru2hNwoar7phW9bpmIqV-25" value="" style="endArrow=none;html=1;rounded=0;exitX=0.5;exitY=0.5;exitDx=0;exitDy=0;exitPerimeter=0;entryX=0;entryY=0.5;entryDx=0;entryDy=0;" parent="1" source="ru2hNwoar7phW9bpmIqV-1" target="ru2hNwoar7phW9bpmIqV-23" edge="1">
          <mxGeometry width="50" height="50" relative="1" as="geometry">
            <mxPoint x="175" y="230" as="sourcePoint" />
            <mxPoint x="300" y="335" as="targetPoint" />
          </mxGeometry>
        </mxCell>
        <mxCell id="ru2hNwoar7phW9bpmIqV-26" value="añadir/modificar discoteca" style="ellipse;whiteSpace=wrap;html=1;flipV=0;" parent="1" vertex="1">
          <mxGeometry x="422.5" y="220" width="95" height="50" as="geometry" />
        </mxCell>
        <mxCell id="ru2hNwoar7phW9bpmIqV-27" value="" style="endArrow=none;html=1;rounded=0;exitX=0.5;exitY=0.5;exitDx=0;exitDy=0;exitPerimeter=0;entryX=1;entryY=0.5;entryDx=0;entryDy=0;" parent="1" source="ru2hNwoar7phW9bpmIqV-3" target="ru2hNwoar7phW9bpmIqV-26" edge="1">
          <mxGeometry width="50" height="50" relative="1" as="geometry">
            <mxPoint x="335" y="270" as="sourcePoint" />
            <mxPoint x="450" y="215" as="targetPoint" />
          </mxGeometry>
        </mxCell>
        <mxCell id="ru2hNwoar7phW9bpmIqV-28" value="añadir/modificar evento" style="ellipse;whiteSpace=wrap;html=1;flipV=0;" parent="1" vertex="1">
          <mxGeometry x="422.5" y="360" width="100" height="40" as="geometry" />
        </mxCell>
        <mxCell id="ru2hNwoar7phW9bpmIqV-29" value="" style="endArrow=none;html=1;rounded=0;exitX=0.5;exitY=0.5;exitDx=0;exitDy=0;exitPerimeter=0;entryX=1;entryY=0.5;entryDx=0;entryDy=0;" parent="1" source="ru2hNwoar7phW9bpmIqV-3" target="ru2hNwoar7phW9bpmIqV-28" edge="1">
          <mxGeometry width="50" height="50" relative="1" as="geometry">
            <mxPoint x="640" y="340" as="sourcePoint" />
            <mxPoint x="450" y="255" as="targetPoint" />
          </mxGeometry>
        </mxCell>
        <mxCell id="ru2hNwoar7phW9bpmIqV-32" value="comentar evento/discoteca" style="ellipse;whiteSpace=wrap;html=1;" parent="1" vertex="1">
          <mxGeometry x="255" y="20" width="130" height="40" as="geometry" />
        </mxCell>
        <mxCell id="ru2hNwoar7phW9bpmIqV-33" value="" style="endArrow=none;html=1;rounded=0;exitX=0.5;exitY=0.5;exitDx=0;exitDy=0;exitPerimeter=0;entryX=0;entryY=0.5;entryDx=0;entryDy=0;" parent="1" source="ru2hNwoar7phW9bpmIqV-1" target="ru2hNwoar7phW9bpmIqV-32" edge="1">
          <mxGeometry width="50" height="50" relative="1" as="geometry">
            <mxPoint x="175" y="230" as="sourcePoint" />
            <mxPoint x="290" y="175" as="targetPoint" />
          </mxGeometry>
        </mxCell>
        <mxCell id="ru2hNwoar7phW9bpmIqV-34" value="modificar usuario" style="ellipse;whiteSpace=wrap;html=1;" parent="1" vertex="1">
          <mxGeometry x="280" y="207" width="80" height="30" as="geometry" />
        </mxCell>
        <mxCell id="ru2hNwoar7phW9bpmIqV-35" value="" style="endArrow=none;html=1;rounded=0;exitX=0.5;exitY=0.5;exitDx=0;exitDy=0;exitPerimeter=0;entryX=0;entryY=0.5;entryDx=0;entryDy=0;" parent="1" source="ru2hNwoar7phW9bpmIqV-1" target="ru2hNwoar7phW9bpmIqV-34" edge="1">
          <mxGeometry width="50" height="50" relative="1" as="geometry">
            <mxPoint x="185" y="230" as="sourcePoint" />
            <mxPoint x="300" y="215" as="targetPoint" />
          </mxGeometry>
        </mxCell>
        <mxCell id="ru2hNwoar7phW9bpmIqV-36" value="reservar entrada" style="ellipse;whiteSpace=wrap;html=1;" parent="1" vertex="1">
          <mxGeometry x="280" y="71" width="80" height="30" as="geometry" />
        </mxCell>
        <mxCell id="ru2hNwoar7phW9bpmIqV-37" value="" style="endArrow=none;html=1;rounded=0;exitX=0.5;exitY=0.5;exitDx=0;exitDy=0;exitPerimeter=0;entryX=0;entryY=0.5;entryDx=0;entryDy=0;" parent="1" source="ru2hNwoar7phW9bpmIqV-1" target="ru2hNwoar7phW9bpmIqV-36" edge="1">
          <mxGeometry width="50" height="50" relative="1" as="geometry">
            <mxPoint x="175" y="220" as="sourcePoint" />
            <mxPoint x="290" y="205" as="targetPoint" />
          </mxGeometry>
        </mxCell>
        <mxCell id="ru2hNwoar7phW9bpmIqV-51" value="pagar" style="edgeLabel;html=1;align=center;verticalAlign=middle;resizable=0;points=[];" parent="ru2hNwoar7phW9bpmIqV-37" vertex="1" connectable="0">
          <mxGeometry x="0.4154" relative="1" as="geometry">
            <mxPoint as="offset" />
          </mxGeometry>
        </mxCell>
        <mxCell id="ru2hNwoar7phW9bpmIqV-38" value="contactar con soporte" style="ellipse;whiteSpace=wrap;html=1;" parent="1" vertex="1">
          <mxGeometry x="275" y="387" width="90" height="35" as="geometry" />
        </mxCell>
        <mxCell id="ru2hNwoar7phW9bpmIqV-39" value="" style="endArrow=none;html=1;rounded=0;exitX=0.5;exitY=0.5;exitDx=0;exitDy=0;exitPerimeter=0;entryX=0;entryY=0.5;entryDx=0;entryDy=0;" parent="1" source="ru2hNwoar7phW9bpmIqV-2" target="ru2hNwoar7phW9bpmIqV-38" edge="1">
          <mxGeometry width="50" height="50" relative="1" as="geometry">
            <mxPoint x="175" y="400" as="sourcePoint" />
            <mxPoint x="290" y="375" as="targetPoint" />
          </mxGeometry>
        </mxCell>
        <mxCell id="ru2hNwoar7phW9bpmIqV-40" value="" style="endArrow=none;html=1;rounded=0;exitX=0.5;exitY=0.5;exitDx=0;exitDy=0;exitPerimeter=0;entryX=0;entryY=0.5;entryDx=0;entryDy=0;" parent="1" source="ru2hNwoar7phW9bpmIqV-1" target="ru2hNwoar7phW9bpmIqV-38" edge="1">
          <mxGeometry width="50" height="50" relative="1" as="geometry">
            <mxPoint x="175" y="230" as="sourcePoint" />
            <mxPoint x="300" y="375" as="targetPoint" />
          </mxGeometry>
        </mxCell>
        <mxCell id="ru2hNwoar7phW9bpmIqV-41" value="responder a usuarios" style="ellipse;whiteSpace=wrap;html=1;flipV=0;" parent="1" vertex="1">
          <mxGeometry x="422.5" y="410" width="100" height="40" as="geometry" />
        </mxCell>
        <mxCell id="ru2hNwoar7phW9bpmIqV-42" value="" style="endArrow=none;html=1;rounded=0;exitX=0.5;exitY=0.5;exitDx=0;exitDy=0;exitPerimeter=0;entryX=1;entryY=0.5;entryDx=0;entryDy=0;" parent="1" source="ru2hNwoar7phW9bpmIqV-3" target="ru2hNwoar7phW9bpmIqV-41" edge="1">
          <mxGeometry width="50" height="50" relative="1" as="geometry">
            <mxPoint x="640" y="350" as="sourcePoint" />
            <mxPoint x="450" y="305" as="targetPoint" />
          </mxGeometry>
        </mxCell>
        <mxCell id="ru2hNwoar7phW9bpmIqV-43" value="moderar comentarios" style="ellipse;whiteSpace=wrap;html=1;" parent="1" vertex="1">
          <mxGeometry x="425" y="130" width="100" height="40" as="geometry" />
        </mxCell>
        <mxCell id="ru2hNwoar7phW9bpmIqV-44" value="" style="endArrow=none;html=1;rounded=0;exitX=0.5;exitY=0.5;exitDx=0;exitDy=0;exitPerimeter=0;entryX=1;entryY=0.5;entryDx=0;entryDy=0;" parent="1" source="ru2hNwoar7phW9bpmIqV-3" target="ru2hNwoar7phW9bpmIqV-43" edge="1">
          <mxGeometry width="50" height="50" relative="1" as="geometry">
            <mxPoint x="640" y="190" as="sourcePoint" />
            <mxPoint x="450" y="145" as="targetPoint" />
          </mxGeometry>
        </mxCell>
        <mxCell id="ru2hNwoar7phW9bpmIqV-45" value="escoger número" style="ellipse;whiteSpace=wrap;html=1;" parent="1" vertex="1">
          <mxGeometry x="440" y="70" width="80" height="30" as="geometry" />
        </mxCell>
        <mxCell id="ru2hNwoar7phW9bpmIqV-46" value="Extends" style="endArrow=block;endSize=16;endFill=0;html=1;rounded=0;exitX=0;exitY=0.5;exitDx=0;exitDy=0;entryX=1;entryY=0.5;entryDx=0;entryDy=0;" parent="1" source="ru2hNwoar7phW9bpmIqV-45" target="ru2hNwoar7phW9bpmIqV-36" edge="1">
          <mxGeometry width="160" relative="1" as="geometry">
            <mxPoint x="490" y="140" as="sourcePoint" />
            <mxPoint x="650" y="140" as="targetPoint" />
          </mxGeometry>
        </mxCell>
        <mxCell id="ru2hNwoar7phW9bpmIqV-47" value="cancelar entrada" style="ellipse;whiteSpace=wrap;html=1;" parent="1" vertex="1">
          <mxGeometry x="280" y="116" width="80" height="30" as="geometry" />
        </mxCell>
        <mxCell id="ru2hNwoar7phW9bpmIqV-48" value="" style="endArrow=none;html=1;rounded=0;entryX=0;entryY=0.5;entryDx=0;entryDy=0;exitX=0.5;exitY=0.5;exitDx=0;exitDy=0;exitPerimeter=0;" parent="1" source="ru2hNwoar7phW9bpmIqV-1" target="ru2hNwoar7phW9bpmIqV-47" edge="1">
          <mxGeometry width="50" height="50" relative="1" as="geometry">
            <mxPoint x="170" y="190" as="sourcePoint" />
            <mxPoint x="290" y="95" as="targetPoint" />
          </mxGeometry>
        </mxCell>
        <mxCell id="ru2hNwoar7phW9bpmIqV-49" value="" style="endArrow=none;html=1;rounded=0;entryX=1;entryY=0.5;entryDx=0;entryDy=0;exitX=0.5;exitY=0.5;exitDx=0;exitDy=0;exitPerimeter=0;" parent="1" source="ru2hNwoar7phW9bpmIqV-3" target="ru2hNwoar7phW9bpmIqV-47" edge="1">
          <mxGeometry width="50" height="50" relative="1" as="geometry">
            <mxPoint x="530" y="160" as="sourcePoint" />
            <mxPoint x="300" y="105" as="targetPoint" />
          </mxGeometry>
        </mxCell>
        <mxCell id="W2gP4M4yLTLJ7H_n7yjI-1" value="iniciar sesión" style="ellipse;whiteSpace=wrap;html=1;" vertex="1" parent="1">
          <mxGeometry x="280" y="480" width="80" height="30" as="geometry" />
        </mxCell>
        <mxCell id="W2gP4M4yLTLJ7H_n7yjI-3" value="" style="endArrow=none;html=1;rounded=0;entryX=0;entryY=0.5;entryDx=0;entryDy=0;exitX=0.5;exitY=0.5;exitDx=0;exitDy=0;exitPerimeter=0;" edge="1" parent="1" source="ru2hNwoar7phW9bpmIqV-2" target="W2gP4M4yLTLJ7H_n7yjI-1">
          <mxGeometry width="50" height="50" relative="1" as="geometry">
            <mxPoint x="140" y="360" as="sourcePoint" />
            <mxPoint x="280" y="470" as="targetPoint" />
          </mxGeometry>
        </mxCell>
        <mxCell id="W2gP4M4yLTLJ7H_n7yjI-4" value="" style="endArrow=none;html=1;rounded=0;entryX=1;entryY=0.5;entryDx=0;entryDy=0;" edge="1" parent="1" target="ru2hNwoar7phW9bpmIqV-14">
          <mxGeometry width="50" height="50" relative="1" as="geometry">
            <mxPoint x="640" y="300" as="sourcePoint" />
            <mxPoint x="525" y="275" as="targetPoint" />
          </mxGeometry>
        </mxCell>
        <mxCell id="W2gP4M4yLTLJ7H_n7yjI-5" value="" style="endArrow=none;html=1;rounded=0;entryX=1;entryY=0.5;entryDx=0;entryDy=0;" edge="1" parent="1" target="ru2hNwoar7phW9bpmIqV-19">
          <mxGeometry width="50" height="50" relative="1" as="geometry">
            <mxPoint x="640" y="300" as="sourcePoint" />
            <mxPoint x="370" y="278" as="targetPoint" />
          </mxGeometry>
        </mxCell>
        <mxCell id="W2gP4M4yLTLJ7H_n7yjI-6" value="" style="endArrow=none;html=1;rounded=0;entryX=1;entryY=0.5;entryDx=0;entryDy=0;" edge="1" parent="1" target="ru2hNwoar7phW9bpmIqV-23">
          <mxGeometry width="50" height="50" relative="1" as="geometry">
            <mxPoint x="640" y="300" as="sourcePoint" />
            <mxPoint x="380" y="288" as="targetPoint" />
          </mxGeometry>
        </mxCell>
      </root>
    </mxGraphModel>
  </diagram>
</mxfile>
